<svg id="Layer_1" data-name="Layer 1" xmlns="http://www.w3.org/2000/svg" viewBox="0 0 512 512"><defs><style>.cls-1{fill:#d9e4e8;}.cls-2{fill:#141f38;}.cls-3{fill:#17292d;opacity:0.14;}.cls-4{fill:#79d3d3;}</style></defs><title>coffee-1-filled</title><path class="cls-1" d="M185.28,499.2a51.15,51.15,0,0,1-50.88-45.54L91.1,64H420.9L377.6,453.66a51.15,51.15,0,0,1-50.88,45.54Z"/><path class="cls-1" d="M96,89.6A19.22,19.22,0,0,1,76.8,70.4V64A51.26,51.26,0,0,1,128,12.8H384A51.26,51.26,0,0,1,435.2,64v6.4A19.22,19.22,0,0,1,416,89.6Z"/><path class="cls-2" d="M384,0H128A64,64,0,0,0,64,64v6.4A32,32,0,0,0,82.14,99.25l39.54,355.82A64,64,0,0,0,185.28,512H326.72a64,64,0,0,0,63.61-56.93L429.86,99.25A32,32,0,0,0,448,70.4V64A64,64,0,0,0,384,0ZM89.6,64A38.44,38.44,0,0,1,128,25.6H384A38.44,38.44,0,0,1,422.4,64v6.4a6.41,6.41,0,0,1-6.4,6.4H96a6.41,6.41,0,0,1-6.4-6.4ZM326.72,486.4H185.28a38.36,38.36,0,0,1-38.17-34.16l-1.89-17H366.78l-1.89,17A38.36,38.36,0,0,1,326.72,486.4Zm42.9-76.8H142.38L108.25,102.4H403.75ZM256,179.2A76.8,76.8,0,1,0,332.8,256,76.8,76.8,0,0,0,256,179.2Zm0,128A51.2,51.2,0,1,1,307.2,256,51.26,51.26,0,0,1,256,307.2Z"/><path class="cls-3" d="M384,0H320a64,64,0,0,1,64,64v6.4a32,32,0,0,1-1.17,8.52c-1.76,9.81-6.48,20-18.16,23.08a16.05,16.05,0,0,1-2.21.4h3.05L326.33,455.07A64,64,0,0,1,262.72,512h64a64,64,0,0,0,63.61-56.93L429.86,99.25A32,32,0,0,0,448,70.4V64A64,64,0,0,0,384,0Z"/><path class="cls-4" d="M256,204.8A51.2,51.2,0,1,0,307.2,256,51.26,51.26,0,0,0,256,204.8Z"/></svg>